<svg width="29" height="29" viewBox="0 0 29 29" fill="none" xmlns="http://www.w3.org/2000/svg">
<path d="M10.1542 13.0012C9.70694 13.0012 9.37133 12.802 9.14733 12.4038C8.92411 12.0048 8.92917 11.6109 9.1625 11.222L13.5083 4.13449C13.7417 3.76504 14.0722 3.58032 14.5 3.58032C14.9278 3.58032 15.2583 3.76504 15.4917 4.13449L19.8375 11.222C20.0708 11.6109 20.0755 12.0048 19.8515 12.4038C19.6283 12.802 19.2931 13.0012 18.8458 13.0012H10.1542ZM20.9167 25.8345C19.4583 25.8345 18.2186 25.3243 17.1973 24.3038C16.1769 23.2826 15.6667 22.0428 15.6667 20.5845C15.6667 19.1262 16.1769 17.8864 17.1973 16.8652C18.2186 15.8447 19.4583 15.3345 20.9167 15.3345C22.375 15.3345 23.6148 15.8447 24.636 16.8652C25.6564 17.8864 26.1667 19.1262 26.1667 20.5845C26.1667 22.0428 25.6564 23.2826 24.636 24.3038C23.6148 25.3243 22.375 25.8345 20.9167 25.8345ZM5.16667 25.2512C4.83611 25.2512 4.55922 25.1392 4.336 24.9152C4.112 24.6919 4 24.415 4 24.0845V17.0845C4 16.7539 4.112 16.4767 4.336 16.2527C4.55922 16.0294 4.83611 15.9178 5.16667 15.9178H12.1667C12.4972 15.9178 12.7745 16.0294 12.9985 16.2527C13.2217 16.4767 13.3333 16.7539 13.3333 17.0845V24.0845C13.3333 24.415 13.2217 24.6919 12.9985 24.9152C12.7745 25.1392 12.4972 25.2512 12.1667 25.2512H5.16667Z" fill="white"/>
</svg>
