<svg width="43" height="43" viewBox="0 0 43 43" fill="none" xmlns="http://www.w3.org/2000/svg">
<g clip-path="url(#clip0_2_362)">
<path d="M19.0938 29.0077V28.4765C19.1055 28.4336 19.125 28.3945 19.1328 28.3515C19.3047 27.2343 20.2344 26.3515 21.3242 26.2773C22.543 26.1914 23.5742 26.8867 23.9102 28.0195C23.9531 28.1679 23.9844 28.3242 24.0234 28.4765V29.0078C24.0117 29.0429 23.9922 29.0741 23.9883 29.1132C23.8203 30.1445 23.0781 30.9296 22.0625 31.1523C21.9844 31.1679 21.9062 31.1913 21.8281 31.2109H21.2969C21.2617 31.1991 21.2266 31.1796 21.1914 31.1757C20.1758 31.0116 19.4024 30.289 19.168 29.2851C19.1445 29.1874 19.1172 29.0976 19.0938 29.0077H19.0938ZM24.0235 13.9922L24.0234 14.5235C24.0117 14.5664 23.9922 14.6055 23.9883 14.6485C23.8125 15.7735 22.8789 16.6524 21.7773 16.7227C20.5625 16.8008 19.5352 16.0977 19.2031 14.961C19.1602 14.8164 19.1289 14.668 19.0938 14.5234V13.9922C19.1055 13.957 19.125 13.9258 19.1328 13.8906C19.3203 12.875 19.9102 12.2109 20.8945 11.8945C21.0234 11.8516 21.1602 11.8281 21.293 11.793H21.8242C21.8594 11.8047 21.8945 11.8242 21.9297 11.8281C22.9492 11.9961 23.7188 12.7148 23.9531 13.7188C23.9766 13.8125 24 13.9023 24.0235 13.9922ZM24.0234 21.2344V21.7656C24.0117 21.8086 23.9922 21.8477 23.9844 21.8906C23.8086 23.0117 22.8398 23.9141 21.7461 23.9609C20.5156 24.0156 19.4727 23.2734 19.1797 22.1289C19.1484 22.0078 19.1211 21.8867 19.0938 21.7656V21.2344C19.1055 21.1914 19.125 21.1523 19.1328 21.1094C19.3047 19.9883 20.2773 19.0859 21.3711 19.0352C22.6016 18.9766 23.6445 19.7227 23.9375 20.8672C23.9688 20.9922 23.9961 21.1133 24.0234 21.2344Z" fill="black"/>
</g>
<defs>
<clipPath id="clip0_2_362">
<rect width="20" height="20" fill="white" transform="translate(11.5 11.5)"/>
</clipPath>
</defs>
</svg>
