<svg width="48" height="23" viewBox="0 0 48 23" fill="none" xmlns="http://www.w3.org/2000/svg">
<circle cx="42.9944" cy="5.00559" r="5.00559" fill="#2656D1"/>
<path fill-rule="evenodd" clip-rule="evenodd" d="M35.9358 7.52777L33.6516 16.8858H33.4891L30.97 6.56584H25.0787L30.32 22.1677H36.8207L40.0739 12.4837C37.9363 11.704 36.3282 9.8233 35.9358 7.52777ZM5.64754 1.36523V22.1677H0V1.36523H5.64754ZM14.0122 13.3916V22.1677H8.40528V6.56584H13.7278V9.53182H13.8903C14.2289 8.54316 14.8248 7.76781 15.678 7.20576C16.538 6.64372 17.5402 6.3627 18.6846 6.3627C19.7884 6.3627 20.7466 6.61663 21.5592 7.1245C22.3785 7.6256 23.0117 8.31631 23.4586 9.19662C23.9123 10.0769 24.1358 11.0825 24.129 12.2134V22.1677H18.5221V13.3916C18.5289 12.6197 18.3325 12.0136 17.933 11.5735C17.5402 11.1333 16.9917 10.9132 16.2875 10.9132C15.827 10.9132 15.4241 11.0148 15.0787 11.218C14.7401 11.4143 14.4794 11.6987 14.2966 12.0712C14.1138 12.4368 14.019 12.877 14.0122 13.3916Z" fill="white"/>
</svg>
