<svg width="29" height="29" viewBox="0 0 29 29" fill="none" xmlns="http://www.w3.org/2000/svg">
<path d="M6.33333 6.00114H8.66667V9.50114H20.3333V6.00114H22.6667V11.8345H25V6.00114C25 4.71781 23.95 3.66781 22.6667 3.66781H17.79C17.3 2.31447 16.0167 1.33447 14.5 1.33447C12.9833 1.33447 11.7 2.31447 11.21 3.66781H6.33333C5.05 3.66781 4 4.71781 4 6.00114V22.3345C4 23.6178 5.05 24.6678 6.33333 24.6678H13.3333V22.3345H6.33333V6.00114ZM14.5 3.66781C15.1417 3.66781 15.6667 4.19281 15.6667 4.83447C15.6667 5.47614 15.1417 6.00114 14.5 6.00114C13.8583 6.00114 13.3333 5.47614 13.3333 4.83447C13.3333 4.19281 13.8583 3.66781 14.5 3.66781Z" fill="white"/>
<path d="M25 13.5845L18.595 20.0011L15.0833 16.5011L13.3333 18.2511L18.595 23.5011L26.75 15.3345L25 13.5845Z" fill="white"/>
</svg>
