<svg width="14" height="14" viewBox="0 0 14 14" fill="none" xmlns="http://www.w3.org/2000/svg">
<path d="M4.59385 11.3749C4.5946 11.2009 4.66328 11.0341 4.78525 10.9101L8.69541 6.99992L4.78525 3.08976C4.66197 2.96648 4.59271 2.79927 4.59271 2.62492C4.59271 2.45057 4.66197 2.28336 4.78525 2.16007C4.90854 2.03679 5.07575 1.96753 5.2501 1.96753C5.42445 1.96753 5.59166 2.03679 5.71494 2.16007L10.0899 6.53507C10.1511 6.59604 10.1997 6.66849 10.2328 6.74826C10.2659 6.82802 10.283 6.91355 10.283 6.99992C10.283 7.08629 10.2659 7.17181 10.2328 7.25158C10.1997 7.33135 10.1511 7.40379 10.0899 7.46476L5.71494 11.8398C5.65397 11.9009 5.58153 11.9495 5.50176 11.9826C5.42199 12.0157 5.33647 12.0328 5.2501 12.0328C5.16373 12.0328 5.0782 12.0157 4.99844 11.9826C4.91867 11.9495 4.84622 11.9009 4.78525 11.8398C4.66328 11.7157 4.5946 11.5489 4.59385 11.3749Z" fill="black"/>
</svg>
