<svg width="14" height="14" viewBox="0 0 14 14" fill="none" xmlns="http://www.w3.org/2000/svg">
<path d="M3.08994 11.8398C3.02897 11.9009 2.95653 11.9495 2.87676 11.9826C2.79699 12.0157 2.71147 12.0328 2.6251 12.0328C2.53873 12.0328 2.45321 12.0157 2.37344 11.9826C2.29367 11.9495 2.22122 11.9009 2.16026 11.8398C2.03802 11.7159 1.96949 11.5489 1.96949 11.3749C1.96949 11.2009 2.03802 11.0339 2.16026 10.9101L6.07041 6.99992L2.16026 3.08976C2.03697 2.96648 1.96771 2.79927 1.96771 2.62492C1.96771 2.45057 2.03697 2.28336 2.16026 2.16007C2.28354 2.03679 2.45075 1.96753 2.6251 1.96753C2.79945 1.96753 2.96666 2.03679 3.08994 2.16007L7.46494 6.53507C7.52612 6.59604 7.57467 6.66849 7.60779 6.74825C7.64091 6.82802 7.65796 6.91355 7.65796 6.99992C7.65796 7.08629 7.64091 7.17181 7.60779 7.25158C7.57467 7.33135 7.52612 7.40379 7.46494 7.46476L3.08994 11.8398ZM6.53525 3.08976L10.4454 6.99992L6.53525 10.9101C6.41302 11.0339 6.34448 11.2009 6.34448 11.3749C6.34448 11.5489 6.41302 11.7159 6.53525 11.8398C6.59622 11.9009 6.66867 11.9495 6.74844 11.9826C6.8282 12.0157 6.91373 12.0328 7.0001 12.0328C7.08647 12.0328 7.17199 12.0157 7.25176 11.9826C7.33153 11.9495 7.40397 11.9009 7.46494 11.8398L11.8399 7.46476C11.9011 7.40379 11.9497 7.33135 11.9828 7.25158C12.0159 7.17181 12.033 7.08629 12.033 6.99992C12.033 6.91355 12.0159 6.82802 11.9828 6.74825C11.9497 6.66849 11.9011 6.59604 11.8399 6.53507L7.46494 2.16007C7.34166 2.03679 7.17445 1.96753 7.0001 1.96753C6.82575 1.96753 6.65854 2.03679 6.53525 2.16007C6.41197 2.28336 6.34271 2.45057 6.34271 2.62492C6.34271 2.79927 6.41197 2.96648 6.53525 3.08976Z" fill="black"/>
</svg>
