<svg width="14" height="14" viewBox="0 0 14 14" fill="none" xmlns="http://www.w3.org/2000/svg">
<path d="M9.40615 2.62508C9.4054 2.79906 9.33672 2.96586 9.21475 3.08993L5.30459 7.00008L9.21475 10.9102C9.33803 11.0335 9.40729 11.2007 9.40729 11.3751C9.40729 11.5494 9.33803 11.7166 9.21475 11.8399C9.09146 11.9632 8.92425 12.0325 8.7499 12.0325C8.57555 12.0325 8.40834 11.9632 8.28506 11.8399L3.91006 7.46493C3.84888 7.40396 3.80034 7.33151 3.76721 7.25174C3.73409 7.17198 3.71704 7.08645 3.71704 7.00008C3.71704 6.91371 3.73409 6.82819 3.76721 6.74842C3.80034 6.66865 3.84888 6.59621 3.91006 6.53524L8.28506 2.16024C8.34603 2.09906 8.41847 2.05052 8.49824 2.01739C8.57801 1.98427 8.66353 1.96722 8.7499 1.96722C8.83627 1.96722 8.9218 1.98427 9.00156 2.01739C9.08133 2.05052 9.15378 2.09906 9.21475 2.16024C9.33672 2.2843 9.4054 2.45111 9.40615 2.62508Z" fill="black"/>
</svg>
