<svg width="14" height="14" viewBox="0 0 14 14" fill="none" xmlns="http://www.w3.org/2000/svg">
<path d="M10.9101 2.16024C10.971 2.09906 11.0435 2.05052 11.1232 2.0174C11.203 1.98427 11.2885 1.96722 11.3749 1.96722C11.4613 1.96722 11.5468 1.98427 11.6266 2.0174C11.7063 2.05052 11.7788 2.09906 11.8397 2.16024C11.962 2.28408 12.0305 2.45108 12.0305 2.62508C12.0305 2.79909 11.962 2.96609 11.8397 3.08993L7.92959 7.00008L11.8397 10.9102C11.963 11.0335 12.0323 11.2007 12.0323 11.3751C12.0323 11.5494 11.963 11.7166 11.8397 11.8399C11.7165 11.9632 11.5493 12.0325 11.3749 12.0325C11.2006 12.0325 11.0333 11.9632 10.9101 11.8399L6.53506 7.46493C6.47388 7.40396 6.42533 7.33151 6.39221 7.25175C6.35909 7.17198 6.34204 7.08645 6.34204 7.00008C6.34204 6.91371 6.35909 6.82819 6.39221 6.74842C6.42533 6.66865 6.47388 6.59621 6.53506 6.53524L10.9101 2.16024ZM7.46475 10.9102L3.55459 7.00008L7.46475 3.08993C7.58698 2.96609 7.65552 2.79909 7.65552 2.62508C7.65552 2.45108 7.58698 2.28408 7.46475 2.16024C7.40378 2.09906 7.33133 2.05052 7.25156 2.0174C7.1718 1.98427 7.08627 1.96722 6.9999 1.96722C6.91353 1.96722 6.82801 1.98427 6.74824 2.0174C6.66847 2.05052 6.59603 2.09906 6.53506 2.16024L2.16006 6.53524C2.09888 6.59621 2.05034 6.66865 2.01721 6.74842C1.98409 6.82819 1.96704 6.91371 1.96704 7.00008C1.96704 7.08645 1.98409 7.17198 2.01721 7.25175C2.05034 7.33151 2.09888 7.40396 2.16006 7.46493L6.53506 11.8399C6.65834 11.9632 6.82555 12.0325 6.9999 12.0325C7.17425 12.0325 7.34146 11.9632 7.46475 11.8399C7.58803 11.7166 7.65729 11.5494 7.65729 11.3751C7.65729 11.2007 7.58803 11.0335 7.46475 10.9102Z" fill="black"/>
</svg>
