<svg width="24" height="21" viewBox="0 0 24 21" fill="none" xmlns="http://www.w3.org/2000/svg">
<path d="M10.1667 10.1678C8.88334 10.1678 7.78472 9.71086 6.87084 8.79697C5.95695 7.88308 5.5 6.78447 5.5 5.50114C5.5 4.21781 5.95695 3.1192 6.87084 2.20531C7.78472 1.29142 8.88334 0.834473 10.1667 0.834473C11.45 0.834473 12.5486 1.29142 13.4625 2.20531C14.3764 3.1192 14.8333 4.21781 14.8333 5.50114C14.8333 6.78447 14.3764 7.88308 13.4625 8.79697C12.5486 9.71086 11.45 10.1678 10.1667 10.1678ZM2 19.5011C1.66945 19.5011 1.39256 19.3891 1.16934 19.1651C0.945336 18.9419 0.833336 18.665 0.833336 18.3345V16.2345C0.833336 15.5928 0.998614 14.99 1.32917 14.4261C1.65972 13.8623 2.11667 13.4345 2.7 13.1428C3.69167 12.6373 4.80972 12.2095 6.05417 11.8595C7.29861 11.5095 8.66945 11.3345 10.1667 11.3345H10.575C10.6917 11.3345 10.8083 11.3539 10.925 11.3928C10.7694 11.7428 10.638 12.1076 10.5307 12.4871C10.4241 12.8659 10.3417 13.2595 10.2833 13.6678C10.1861 14.3678 10.1569 14.9558 10.1958 15.4318C10.2347 15.9086 10.3417 16.4872 10.5167 17.1678C10.6333 17.5761 10.7889 17.9798 10.9833 18.3788C11.1778 18.777 11.3917 19.1511 11.625 19.5011H2ZM18.3333 17.1678C18.975 17.1678 19.5245 16.9395 19.9818 16.483C20.4384 16.0256 20.6667 15.4761 20.6667 14.8345C20.6667 14.1928 20.4384 13.6433 19.9818 13.186C19.5245 12.7294 18.975 12.5011 18.3333 12.5011C17.6917 12.5011 17.1426 12.7294 16.686 13.186C16.2287 13.6433 16 14.1928 16 14.8345C16 15.4761 16.2287 16.0256 16.686 16.483C17.1426 16.9395 17.6917 17.1678 18.3333 17.1678ZM16.8167 18.9178C16.5833 18.8206 16.3644 18.7187 16.1598 18.6121C15.9561 18.5048 15.7472 18.3734 15.5333 18.2178L14.2792 18.597C14.1431 18.6359 14.0167 18.6308 13.9 18.5818C13.7833 18.5336 13.6861 18.4511 13.6083 18.3345L12.9083 17.1678C12.8306 17.0511 12.8064 16.9247 12.836 16.7886C12.8648 16.6525 12.9375 16.5359 13.0542 16.4386L14.0167 15.5928C13.9778 15.3206 13.9583 15.0678 13.9583 14.8345C13.9583 14.6011 13.9778 14.3484 14.0167 14.0761L13.0542 13.2303C12.9375 13.1331 12.8648 13.0164 12.836 12.8803C12.8064 12.7442 12.8306 12.6178 12.9083 12.5011L13.6083 11.3345C13.6861 11.2178 13.7833 11.135 13.9 11.086C14.0167 11.0377 14.1431 11.0331 14.2792 11.072L15.5333 11.4511C15.7472 11.2956 15.9561 11.1641 16.1598 11.0568C16.3644 10.9503 16.5833 10.8484 16.8167 10.7511L17.0792 9.4678C17.1181 9.33169 17.1861 9.22008 17.2833 9.13297C17.3806 9.04508 17.4972 9.00114 17.6333 9.00114H19.0333C19.1694 9.00114 19.2861 9.04508 19.3833 9.13297C19.4806 9.22008 19.5486 9.33169 19.5875 9.4678L19.85 10.7511C20.0833 10.8484 20.3023 10.9553 20.5068 11.072C20.7106 11.1886 20.9194 11.3345 21.1333 11.5095L22.3583 11.072C22.4944 11.0136 22.6259 11.0136 22.7527 11.072C22.8787 11.1303 22.9806 11.2178 23.0583 11.3345L23.7583 12.5595C23.8361 12.6761 23.8653 12.8025 23.8458 12.9386C23.8264 13.0747 23.7583 13.1914 23.6417 13.2886L22.65 14.1345C22.6889 14.3678 22.7083 14.6109 22.7083 14.8636C22.7083 15.1164 22.6889 15.3595 22.65 15.5928L23.6125 16.4386C23.7292 16.5359 23.8019 16.6525 23.8307 16.7886C23.8602 16.9247 23.8361 17.0511 23.7583 17.1678L23.0583 18.3345C22.9806 18.4511 22.8833 18.5336 22.7667 18.5818C22.65 18.6308 22.5236 18.6359 22.3875 18.597L21.1333 18.2178C20.9194 18.3734 20.7106 18.5048 20.5068 18.6121C20.3023 18.7187 20.0833 18.8206 19.85 18.9178L19.5875 20.2011C19.5486 20.3373 19.4806 20.4489 19.3833 20.536C19.2861 20.6239 19.1694 20.6678 19.0333 20.6678H17.6333C17.4972 20.6678 17.3806 20.6239 17.2833 20.536C17.1861 20.4489 17.1181 20.3373 17.0792 20.2011L16.8167 18.9178Z" fill="white"/>
</svg>
