<svg width="29" height="29" viewBox="0 0 29 29" fill="none" xmlns="http://www.w3.org/2000/svg">
<path d="M23.6933 21.716C24.2533 20.8177 24.5683 19.7677 24.4983 18.6127C24.3467 16.1043 22.3517 13.981 19.8667 13.7127C19.131 13.6271 18.3855 13.6981 17.6792 13.9211C16.9729 14.1441 16.3218 14.5141 15.7687 15.0066C15.2156 15.4992 14.7729 16.1032 14.4698 16.779C14.1667 17.4547 14.01 18.187 14.01 18.9277C14.01 21.8327 16.355 24.1777 19.2483 24.1777C20.275 24.1777 21.2317 23.8743 22.0367 23.361L24.8483 26.1727C25.3033 26.6277 26.05 26.6277 26.505 26.1727C26.96 25.7177 26.96 24.971 26.505 24.516L23.6933 21.716ZM19.26 21.8443C18.4864 21.8443 17.7446 21.537 17.1976 20.9901C16.6506 20.4431 16.3433 19.7012 16.3433 18.9277C16.3433 18.1541 16.6506 17.4123 17.1976 16.8653C17.7446 16.3183 18.4864 16.011 19.26 16.011C20.0335 16.011 20.7754 16.3183 21.3224 16.8653C21.8694 17.4123 22.1767 18.1541 22.1767 18.9277C22.1767 19.7012 21.8694 20.4431 21.3224 20.9901C20.7754 21.537 20.0335 21.8443 19.26 21.8443ZM18.84 11.9277C17.9767 11.951 17.1483 12.1377 16.39 12.4527L15.7483 11.4843L12.155 17.3293C12.059 17.4859 11.9274 17.6176 11.7709 17.7136C11.6144 17.8097 11.4374 17.8675 11.2544 17.8823C11.0713 17.8971 10.8874 17.8684 10.7175 17.7987C10.5476 17.729 10.3965 17.6201 10.2767 17.481L7.80333 14.5993L4.23333 20.316C3.87166 20.8877 3.10166 21.0393 2.55333 20.6427C2.06333 20.281 1.92333 19.6043 2.25 19.0793L6.66 12.021C7.08 11.356 8.025 11.286 8.53833 11.881L11 14.751L14.71 8.71933C14.812 8.55264 14.9544 8.41437 15.124 8.31731C15.2936 8.22025 15.485 8.16754 15.6804 8.16405C15.8758 8.16056 16.0689 8.20641 16.2419 8.29735C16.4149 8.38829 16.5621 8.52139 16.67 8.68433L18.84 11.9277V11.9277ZM21.8617 12.511C21.115 12.1843 20.31 11.986 19.47 11.9393L24.7667 3.551C25.1283 2.97933 25.8983 2.83933 26.435 3.236C26.9367 3.59767 27.065 4.286 26.7383 4.79933L21.8617 12.511V12.511Z" fill="white"/>
</svg>
